<?xml version="1.0" standalone="no"?>
<!DOCTYPE svg PUBLIC "-//W3C//DTD SVG 20010904//EN"
 "http://www.w3.org/TR/2001/REC-SVG-20010904/DTD/svg10.dtd">
<svg version="1.0" xmlns="http://www.w3.org/2000/svg"
 width="576.000000pt" height="576.000000pt" viewBox="0 0 576.000000 576.000000"
 preserveAspectRatio="xMidYMid meet">
<metadata>
Created by potrace 1.11, written by Peter Selinger 2001-2013
</metadata>
<g transform="translate(0.000000,576.000000) scale(0.100000,-0.100000)"
fill="#000000" stroke="none">
<path d="M0 2880 l0 -2880 2880 0 2880 0 0 2880 0 2880 -2880 0 -2880 0 0
-2880z m2086 1532 c960 -1714 1294 -2314 1294 -2324 0 -20 -503 -869 -513
-865 -11 3 -486 840 -494 869 -5 15 274 498 287 498 3 0 23 -39 43 -87 l38
-87 -74 -150 -73 -151 132 -245 c74 -135 140 -246 148 -248 16 -4 279 449 274
472 -2 8 -284 521 -628 1140 l-625 1126 -282 0 c-281 0 -283 0 -283 -21 0 -11
230 -433 511 -936 l510 -916 -44 -71 c-26 -43 -51 -72 -63 -73 -16 -3 -116
174 -582 1025 -309 565 -581 1060 -603 1100 l-40 72 498 0 498 0 71 -128z
m2626 96 c-11 -18 -286 -511 -612 -1095 -340 -611 -598 -1063 -606 -1063 -13
0 -104 167 -104 190 0 6 230 412 511 903 282 491 514 895 516 900 2 4 -126 7
-284 7 l-289 0 -370 -647 c-203 -356 -373 -646 -379 -645 -5 1 -33 34 -61 74
l-52 73 377 667 376 668 498 0 499 0 -20 -32z"/>
</g>
</svg>
