<svg xmlns="http://www.w3.org/2000/svg" width="48" height="48" viewBox="0 0 48 48">
  <defs>
    <style>
      .cls-1 {
        fill: #fff;
        fill-rule: evenodd;
      }
    </style>
  </defs>
  <path id="Shape_1_copy_2" data-name="Shape 1 copy 2" class="cls-1" d="M1,5H13.333l17,30.282L24,46H23.833L17.667,35.112l3.667-6.124,1,2.212L20.5,34.942l3.333,6.125h0.333L27.5,35.282,11.833,7.212h-7v0.51L17.5,30.349,16.333,32.22H16ZM34.667,5H47L31.833,32.05H31.5l-1.167-2.382L43.167,7.382H36L26.833,23.373H26.667L25.333,21.5ZM2,4H14.333l17,30.282L25,45H24.833L18.667,34.112l3.667-6.124,1,2.212L21.5,33.942l3.333,6.125h0.333L28.5,34.282,12.833,6.212h-7v0.51L18.5,29.349,17.333,31.22H17ZM35.667,4H48L32.833,31.05H32.5l-1.167-2.382L44.167,6.382H37L27.833,22.373H27.667L26.333,20.5ZM0,4H12.333l17,30.282L23,45H22.833L16.667,34.112l3.667-6.124,1,2.212L19.5,33.942l3.333,6.125h0.333L26.5,34.282,10.833,6.212h-7v0.51L16.5,29.349,15.333,31.22H15ZM33.667,4H46L30.833,31.05H30.5l-1.167-2.382L42.167,6.382H35L25.833,22.373H25.667L24.333,20.5Z"/>
</svg>
